HIERARCHY
ROOT Hips
{
	OFFSET 0.00 0.00 0.00
	CHANNELS 6 Xposition Yposition Zposition Xrotation Yrotation Zrotation
	JOINT Spine
	{
		OFFSET 0.00000 3.24121 0.00000
		CHANNELS 3 Xrotation Yrotation Zrotation
		JOINT Head
		{
			OFFSET 0.00000 18.38296 0.00000
			CHANNELS 3 Xrotation Yrotation Zrotation
			End Site
			{
				OFFSET 0.00000 4.52755 0.00000
			}
		}
		JOINT LeftShoulder
		{
			OFFSET 0.00000 12.82826 0.00000
			CHANNELS 3 Xrotation Yrotation Zrotation
			JOINT LeftArm
			{
				OFFSET 7.74805 0.00000 0.00000
				CHANNELS 3 Xrotation Yrotation Zrotation
				JOINT LeftForeArm
				{
					OFFSET 10.63561 0.00000 0.00000
					CHANNELS 3 Yrotation Zrotation Xrotation
					JOINT LeftHand
					{
						OFFSET 8.34675 0.00000 0.00000
						CHANNELS 3 Xrotation Yrotation Zrotation
						JOINT LeftHandThumb1
						{
							OFFSET 0.00000 0.00000 0.00000
							CHANNELS 3 Xrotation Zrotation Yrotation
							End Site
							{
								OFFSET 0.00000 0.00000 3.93700
							}
						}
						End Site
						{
							OFFSET 3.93700 0.00000 0.00000
						}
					}
				}
			}
		}
		JOINT RightShoulder
		{
			OFFSET 0.00000 12.82826 0.00000
			CHANNELS 3 Xrotation Yrotation Zrotation
			JOINT RightArm
			{
				OFFSET -7.74805 0.00000 0.00000
				CHANNELS 3 Xrotation Yrotation Zrotation
				JOINT RightForeArm
				{
					OFFSET -10.63561 0.00000 0.00000
					CHANNELS 3 Yrotation Zrotation Xrotation
					JOINT RightHand
					{
						OFFSET -8.34675 0.00000 0.00000
						CHANNELS 3 Xrotation Yrotation Zrotation
						JOINT RightHandThumb1
						{
							OFFSET 0.00000 0.00000 0.00000
							CHANNELS 3 Xrotation Zrotation Yrotation
							End Site
							{
								OFFSET 0.00000 0.00000 3.93700
							}
						}
						End Site
						{
							OFFSET -3.93700 0.00000 0.00000
						}
					}
				}
			}
		}
	}
	JOINT LeftUpLeg
	{
		OFFSET 3.43402 0.00000 0.00000
		CHANNELS 3 Xrotation Yrotation Zrotation
		JOINT LeftLeg
		{
			OFFSET 0.00000 -15.71302 0.00000
			CHANNELS 3 Xrotation Yrotation Zrotation
			JOINT LeftFoot
			{
				OFFSET 0.00000 -14.43512 0.00000
				CHANNELS 3 Xrotation Yrotation Zrotation
				JOINT LeftToeBase
				{
					OFFSET 0.00000 -1.27828 4.77061
					CHANNELS 3 Xrotation Yrotation Zrotation
					End Site
					{
						OFFSET 0.00000 0.00000 2.95275
					}
				}
			}
		}
	}
	JOINT RightUpLeg
	{
		OFFSET -3.43402 0.00000 0.00000
		CHANNELS 3 Xrotation Yrotation Zrotation
		JOINT RightLeg
		{
			OFFSET 0.00000 -15.71302 0.00000
			CHANNELS 3 Xrotation Yrotation Zrotation
			JOINT RightFoot
			{
				OFFSET 0.00000 -14.43512 0.00000
				CHANNELS 3 Xrotation Yrotation Zrotation
				JOINT RightToeBase
				{
					OFFSET 0.00000 -1.27828 4.77061
					CHANNELS 3 Xrotation Yrotation Zrotation
					End Site
					{
						OFFSET 0.00000 0.00000 2.95275
					}
				}
			}
		}
	}
}
MOTION
Frames: 9
Frame Time: 0.008333
 -0.3514 32.7007 -4.2029 42.3204 3.3061 -1.7734 -47.5966 -4.5030 -0.6103 6.8041 -4.7066 -5.9921 32.5958 30.0611 20.1187 -57.1099 -9.6039 -34.0281 1.2730 0.0000 16.3492 1.3833 24.8895 -3.2837 33.1476 -0.0000 26.2537 32.1487 -33.0135 -23.8532 -49.9472 17.4364 42.2865 -5.4743 -0.0000 -8.9278 -0.6079 7.0154 4.9650 32.8623 0.0000 -24.3270 -38.5443 3.7329 1.6831 0.6748 -0.0000 -0.0000 -2.5887 0.9004 -2.3672 2.5086 0.0000 0.0000 -37.1965 -8.0911 -0.7953 -2.5610 -0.0000 -0.0000 -3.7638 -11.8008 14.7970 16.0142 -0.0000 -0.0000
 -0.3508 32.7009 -4.2042 42.3215 3.3074 -1.7736 -47.5990 -4.4977 -0.6070 6.8004 -4.7019 -6.0119 32.6190 30.0645 20.0969 -57.0831 -9.5960 -34.0490 1.2414 0.0000 16.2753 1.4033 24.9349 -3.3257 33.1476 -0.0000 26.2537 32.1513 -33.0135 -23.8449 -49.9341 17.4408 42.3138 -5.4844 -0.0000 -8.9842 -0.6132 7.1388 4.9221 32.8623 0.0000 -24.3270 -38.5447 3.7205 1.6820 0.6688 0.0000 -0.0000 -2.5930 0.9098 -2.3794 2.5435 -0.0000 0.0000 -37.1980 -8.1004 -0.7969 -2.5710 0.0000 0.0000 -3.7845 -11.7890 14.7247 15.9468 0.0000 0.0000
 -0.3502 32.7014 -4.2058 42.3196 3.3099 -1.7744 -47.5977 -4.4941 -0.6023 6.8049 -4.6805 -6.0342 32.6662 30.0630 20.0567 -57.0924 -9.5764 -34.0657 1.2255 0.0000 16.2458 1.4180 25.2196 -3.3250 33.1476 -0.0000 26.2537 32.1669 -33.0093 -23.8272 -49.9530 17.4200 42.3360 -5.4797 -0.0000 -8.9916 -0.6133 7.0575 4.9795 32.8623 0.0000 -24.3270 -38.5539 3.7240 1.6805 0.6845 0.0000 0.0000 -2.5965 0.9077 -2.3775 2.5551 -0.0000 0.0000 -37.2029 -8.1027 -0.7994 -2.5628 -0.0000 -0.0000 -3.7563 -11.7891 14.8110 15.9952 0.0000 -0.0000
 -0.3496 32.7013 -4.2073 42.3190 3.3110 -1.7772 -47.5968 -4.4911 -0.5970 6.8054 -4.6606 -6.0524 32.6779 30.0635 20.0406 -57.0485 -9.5870 -34.0929 1.2416 0.0000 16.1731 1.4188 25.1071 -3.3406 33.1476 -0.0000 26.2537 32.1802 -33.0121 -23.8181 -49.9524 17.4098 42.3696 -5.4662 -0.0000 -9.0560 -0.6185 7.0965 4.9937 32.8623 0.0000 -24.3270 -38.5606 3.7336 1.6751 0.6855 -0.0000 -0.0000 -2.6056 0.9567 -2.4582 2.6029 -0.0000 -0.0000 -37.1998 -8.0829 -0.7979 -2.5679 -0.0000 0.0000 -3.7683 -11.8193 14.7614 16.0859 -0.0000 0.0000
 -0.3489 32.7016 -4.2092 42.3193 3.3159 -1.7771 -47.5956 -4.4865 -0.5975 6.8035 -4.6405 -6.0634 32.6982 30.0626 20.0144 -57.0212 -9.5865 -34.1180 1.2273 0.0000 16.1426 1.4310 25.0719 -3.3737 33.1476 -0.0000 26.2537 32.1985 -33.0141 -23.8037 -49.9605 17.3945 42.4049 -5.4637 -0.0000 -9.0683 -0.6210 7.0750 5.0294 32.8623 0.0000 -24.3270 -38.5627 3.7126 1.6750 0.6911 0.0000 0.0000 -2.5885 0.9198 -2.3822 2.5425 -0.0000 -0.0000 -37.2081 -8.0967 -0.8032 -2.5642 -0.0000 -0.0000 -3.7619 -11.8037 14.7565 15.8680 -0.0000 -0.0000
 -0.3484 32.7021 -4.2098 42.3173 3.3184 -1.7779 -47.6000 -4.4856 -0.5952 6.8186 -4.6198 -6.0757 32.7306 30.0570 19.9835 -56.9784 -9.5943 -34.1367 1.2323 0.0000 16.1263 1.3916 25.1446 -3.2721 33.1476 -0.0000 26.2537 32.2241 -33.0050 -23.7811 -49.9685 17.3889 42.4228 -5.4754 -0.0000 -9.0379 -0.6220 7.0082 5.0849 32.8623 0.0000 -24.3270 -38.5660 3.7092 1.6738 0.7005 0.0000 -0.0000 -2.5952 0.9181 -2.3764 2.5531 -0.0000 -0.0000 -37.2089 -8.0980 -0.8060 -2.5578 -0.0000 0.0000 -3.7815 -11.7928 14.7192 15.9606 0.0000 -0.0000
 -0.3471 32.7019 -4.2113 42.3155 3.3233 -1.7821 -47.5989 -4.4817 -0.5909 6.8233 -4.6050 -6.0879 32.7449 30.0542 19.9565 -57.0354 -9.5711 -34.1854 1.2681 0.0000 16.2166 1.3831 25.1963 -3.2460 33.1476 -0.0000 26.2537 32.2407 -32.9958 -23.7596 -49.9626 17.3886 42.4414 -5.5054 -0.0000 -9.0598 -0.6280 7.0393 5.1112 32.8623 0.0000 -24.3270 -38.5721 3.7128 1.6646 0.7019 -0.0000 0.0000 -2.6095 0.9703 -2.4494 2.6207 0.0000 -0.0000 -37.2094 -8.1113 -0.8078 -2.5588 0.0000 0.0000 -3.7671 -11.7960 14.7697 15.9327 0.0000 0.0000
 -0.3465 32.7019 -4.2126 42.3147 3.3316 -1.7837 -47.5996 -4.4805 -0.5910 6.8306 -4.5893 -6.1041 32.7609 30.0497 19.9272 -57.0536 -9.5656 -34.2247 1.2933 0.0000 16.1947 1.4443 25.1063 -3.4007 33.1476 -0.0000 26.2537 32.2742 -32.9989 -23.7370 -49.9936 17.3519 42.4835 -5.4930 -0.0000 -9.0561 -0.6355 7.0579 5.1585 32.8623 0.0000 -24.3270 -38.5740 3.7044 1.6654 0.7096 0.0000 0.0000 -2.5964 0.9187 -2.3872 2.5387 0.0000 -0.0000 -37.2123 -8.1070 -0.8123 -2.5523 0.0000 -0.0000 -3.7814 -11.8074 14.7163 15.9776 -0.0000 0.0000
 -0.3454 32.7017 -4.2135 42.3128 3.3304 -1.7853 -47.6013 -4.4746 -0.5809 6.8421 -4.5629 -6.1233 32.7796 30.0468 19.8986 -57.0223 -9.5782 -34.2687 1.2893 0.0000 16.1598 1.4716 25.1571 -3.4584 33.1476 -0.0000 26.2537 32.2999 -32.9999 -23.7146 -50.0131 17.3491 42.5258 -5.5185 -0.0000 -9.0647 -0.6302 7.0499 5.1208 32.8623 0.0000 -24.3270 -38.5809 3.7170 1.6613 0.7165 0.0000 -0.0000 -2.6150 0.9549 -2.4535 2.6266 0.0000 0.0000 -37.2097 -8.0894 -0.8123 -2.5533 0.0000 -0.0000 -3.7778 -11.8304 14.7626 16.0709 0.0000 0.0000
